# xmcd
#
# Track frame offsets:
#	150
#	15762
#	36409
#	62665
#	86891
#	100639
#	118806
#	137870
#	153362
#	172967
#
# Disc length: 2527 seconds
#
# Revision: 1
# Processed by: cddbd v1.5.2PL0 Copyright (c) Steve Scherf et al.
# Submitted via: EZCDAudioConverter 8.0.2.1
#
DISCID=7909dd0a
DTITLE=Hà Thanh Xuân - Mưa
DYEAR=2011
DGENRE=
TTITLE0=Hà Thanh Xuân - Mưa
TTITLE1=Hà Thanh Xuân - Biển dâu
TTITLE2=Hà Thanh Xuân - Dĩ vãng một loài hoa
TTITLE3=Hà Thanh Xuân - Lâu đài tình ái
TTITLE4=Hà Thanh Xuân, Quốc Khạnh - Thiên duyền thiền định
TTITLE5=Hà Thanh Xuân - Mưa rừng
TTITLE6=Hà Thanh Xuân - Khúc hát ân tình
TTITLE7=Hà Thanh Xuân - Màu xanh Noel
TTITLE8=Hà Thanh Xuân - Gái xuân
TTITLE9=Hà Thanh Xuân - Chán anh ghê
EXTD=
EXTT0=
EXTT1=
EXTT2=
EXTT3=
EXTT4=
EXTT5=
EXTT6=
EXTT7=
EXTT8=
EXTT9=
PLAYORDER=
